<svg viewBox="0 0 16 16">
<g>
	<path fill="#DB5149" d="M357.858,442.151c0,3.478-2.814,6.294-6.292,6.294h-92.304c-3.475,0-6.294-2.816-6.294-6.294v-92.303
		c0-3.474,2.819-6.293,6.294-6.293h92.304c3.478,0,6.292,2.819,6.292,6.293V442.151z"/>
	<g>
		<path fill="#FFFFFF" d="M310.731,349.384h-29.528c-7.741,0-17.49,1.146-25.667,7.882c-0.937,0.805-1.777,1.671-2.568,2.56v32.489
			c4.039,4.008,9.836,6.676,17.193,6.676c1.434,0,3.011-0.144,4.579-0.287c-0.699,1.721-1.429,3.155-1.429,5.593
			c0,4.436,2.297,7.168,4.307,9.747c-5.815,0.389-16.156,1.044-24.65,5.149v10.228c2.556-5.849,8.702-8.171,11.173-9.07
			c6.021-2.005,13.762-2.292,15.06-2.292c1.424,0,2.141,0,3.293,0.144c10.896,7.744,15.621,11.616,15.621,18.927
			c0,4.582-1.957,8.546-5.723,11.316h7.636c5.075-4.851,7.698-10.889,7.698-16.911c0-9.888-5.736-14.769-12.043-20.069l-5.168-4.018
			c-1.57-1.286-3.715-3.01-3.715-6.162c0-3.157,2.146-5.161,4.01-7.028c6.018-4.726,12.041-9.747,12.041-20.357
			c0-10.901-6.883-16.634-10.177-19.354h8.884L310.731,349.384z M286.655,390.96c-2.305,2.296-6.174,4.017-9.751,4.017
			c-12.338,0-17.923-15.922-17.923-25.521c0-3.729,0.72-7.593,3.152-10.613c2.3-2.866,6.305-4.731,10.039-4.731
			c11.897,0,18.059,16.061,18.059,26.382C290.23,383.073,289.956,387.662,286.655,390.96z"/>
		<path fill="#FFFFFF" d="M252.968,440.814v1.337c0,3.478,2.819,6.294,6.294,6.294h0.617
			C256.627,446.466,254.261,443.866,252.968,440.814z"/>
	</g>
	<polygon fill="#FFFFFF" points="357.858,370.578 336.084,370.578 336.084,348.799 330.64,348.799 330.64,370.578 308.857,370.578 
		308.857,376.026 330.64,376.026 330.64,397.803 336.084,397.803 336.084,376.026 357.858,376.026 	"/>
</g>
</svg>
